<svg xmlns="http://www.w3.org/2000/svg" xmlns:xlink="http://www.w3.org/1999/xlink" zoomAndPan="magnify" viewBox="0 0 810 809.999993" preserveAspectRatio="xMidYMid meet" version="1.0"><path fill="#231f20" d="M 651.421875 270.277344 C 635.753906 270.277344 623.050781 282.976562 623.050781 298.644531 C 623.050781 301.136719 623.40625 303.511719 624 305.769531 L 466.011719 398.234375 L 425.65625 339.003906 C 430.285156 333.78125 433.015625 326.894531 433.015625 319.417969 C 433.015625 302.917969 419.601562 289.386719 402.984375 289.386719 C 386.367188 289.386719 372.953125 302.800781 372.953125 319.417969 C 372.953125 326.894531 375.800781 333.78125 380.3125 339.121094 L 340.191406 398.234375 L 187.191406 308.734375 C 188.375 305.648438 188.96875 302.324219 188.96875 298.765625 C 188.96875 283.097656 176.269531 270.394531 160.601562 270.394531 C 144.933594 270.394531 132.230469 283.097656 132.230469 298.765625 C 132.230469 314.433594 144.578125 326.660156 159.890625 327.015625 L 243.808594 504.824219 C 237.875 510.046875 234.074219 517.644531 234.074219 526.191406 C 234.074219 541.859375 246.777344 554.558594 262.445312 554.558594 C 278.113281 554.558594 290.8125 541.859375 290.8125 526.191406 C 290.8125 523.699219 290.457031 521.324219 289.863281 519.070312 L 403.222656 452.71875 L 516.578125 519.070312 C 515.984375 521.324219 515.628906 523.699219 515.628906 526.191406 C 515.628906 541.859375 528.328125 554.558594 543.996094 554.558594 C 559.667969 554.558594 572.367188 541.859375 572.367188 526.191406 C 572.367188 517.644531 568.570312 510.046875 562.632812 504.824219 L 646.792969 326.539062 C 648.335938 326.777344 649.878906 327.015625 651.539062 327.015625 C 667.207031 327.015625 679.90625 314.3125 679.90625 298.644531 C 679.90625 282.976562 667.207031 270.277344 651.539062 270.277344 Z M 403.101562 304.582031 C 411.175781 304.582031 417.820312 311.109375 417.820312 319.300781 C 417.820312 321.4375 417.347656 323.453125 416.515625 325.351562 C 414.261719 330.21875 409.511719 333.660156 403.816406 334.019531 C 403.578125 334.019531 403.339844 334.019531 403.101562 334.019531 C 402.867188 334.019531 402.628906 334.019531 402.390625 334.019531 C 396.691406 333.78125 391.945312 330.339844 389.691406 325.472656 C 388.859375 323.574219 388.382812 321.554688 388.382812 319.417969 C 388.382812 311.347656 394.914062 304.699219 403.101562 304.699219 Z M 173.539062 300.546875 C 173.066406 303.988281 171.164062 306.953125 168.433594 308.972656 C 166.535156 310.398438 164.28125 311.226562 161.90625 311.464844 C 161.550781 311.464844 161.074219 311.585938 160.71875 311.585938 C 156.445312 311.585938 152.648438 309.449219 150.273438 306.242188 C 149.324219 304.9375 148.613281 303.511719 148.257812 301.96875 C 148.019531 300.902344 147.78125 299.832031 147.78125 298.644531 C 147.78125 297.578125 147.902344 296.628906 148.136719 295.679688 C 149.5625 289.980469 154.667969 285.707031 160.71875 285.707031 C 167.84375 285.707031 173.777344 291.523438 173.777344 298.765625 C 173.777344 299.359375 173.777344 300.070312 173.539062 300.664062 Z M 275.5 527.496094 C 274.789062 534.027344 269.328125 539.128906 262.683594 539.128906 C 255.558594 539.128906 249.625 533.3125 249.625 526.074219 C 249.625 523.816406 250.21875 521.800781 251.285156 519.898438 C 253.421875 515.984375 257.460938 513.253906 262.207031 513.132812 C 262.324219 513.132812 262.5625 513.132812 262.683594 513.132812 C 263.511719 513.132812 264.34375 513.132812 265.175781 513.371094 C 266.125 513.609375 267.074219 513.847656 267.90625 514.203125 C 271.226562 515.628906 273.722656 518.355469 274.90625 521.800781 C 275.382812 523.105469 275.738281 524.648438 275.738281 526.191406 C 275.738281 526.667969 275.738281 527.140625 275.621094 527.496094 Z M 271.585938 499.246094 C 268.734375 498.296875 265.769531 497.824219 262.5625 497.824219 C 260.902344 497.824219 259.359375 497.941406 257.816406 498.296875 L 175.082031 323.097656 C 176.152344 322.503906 177.101562 321.792969 178.050781 321.078125 L 331.527344 410.933594 L 271.464844 499.484375 Z M 287.964844 502.453125 L 344.941406 418.648438 L 388.148438 443.933594 L 287.964844 502.570312 Z M 353.605469 405.832031 L 393.132812 347.550781 C 396.21875 348.617188 399.542969 349.332031 403.101562 349.332031 C 406.664062 349.332031 409.988281 348.738281 413.074219 347.550781 L 452.835938 405.949219 L 403.339844 434.910156 Z M 418.535156 443.816406 L 461.503906 418.648438 L 518.476562 502.332031 L 418.414062 443.816406 Z M 544 539.128906 C 537.230469 539.128906 531.773438 534.027344 531.179688 527.496094 C 531.179688 527.023438 531.058594 526.667969 531.058594 526.191406 C 531.058594 524.648438 531.414062 523.222656 531.890625 521.917969 C 533.078125 518.476562 535.6875 515.746094 538.894531 514.320312 C 539.726562 513.964844 540.675781 513.609375 541.625 513.492188 C 542.453125 513.371094 543.285156 513.253906 544.117188 513.253906 C 544.234375 513.253906 544.355469 513.253906 544.589844 513.253906 C 549.339844 513.371094 553.375 516.101562 555.511719 520.019531 C 556.460938 521.917969 557.171875 523.9375 557.171875 526.191406 C 557.171875 533.3125 551.355469 539.25 544.117188 539.25 Z M 548.746094 498.179688 C 547.203125 497.941406 545.660156 497.703125 544 497.703125 C 540.792969 497.703125 537.824219 498.296875 534.976562 499.246094 L 474.679688 410.816406 L 631.714844 318.945312 C 631.714844 318.945312 632.429688 319.65625 632.785156 319.894531 L 548.628906 498.179688 Z M 653.914062 311.347656 C 653.082031 311.464844 652.25 311.585938 651.421875 311.585938 C 649.519531 311.585938 647.859375 311.226562 646.199219 310.515625 C 643.585938 309.328125 641.332031 307.3125 640.023438 304.816406 C 639.074219 302.917969 638.363281 300.902344 638.363281 298.644531 C 638.363281 298.171875 638.363281 297.695312 638.480469 297.339844 C 639.195312 290.8125 644.65625 285.707031 651.421875 285.707031 C 658.542969 285.707031 664.476562 291.523438 664.476562 298.765625 C 664.476562 305.054688 659.964844 310.398438 653.914062 311.585938 Z M 653.914062 311.347656 " fill-opacity="1" fill-rule="nonzero"/><path fill="#231f20" d="M 403.339844 799.4375 C 185.765625 799.4375 8.785156 622.457031 8.785156 405 C 8.785156 187.542969 185.765625 10.445312 403.339844 10.445312 C 620.914062 10.445312 797.894531 187.425781 797.894531 405 C 797.894531 622.574219 620.914062 799.554688 403.339844 799.554688 Z M 403.339844 26.945312 C 194.90625 26.945312 25.285156 196.566406 25.285156 405 C 25.285156 613.433594 194.90625 783.054688 403.222656 783.054688 C 611.539062 783.054688 781.15625 613.433594 781.15625 405 C 781.15625 196.566406 611.773438 26.945312 403.339844 26.945312 Z M 403.339844 26.945312 " fill-opacity="1" fill-rule="nonzero"/></svg>